<?xml version="1.0" encoding="UTF-8" standalone="no"?>
<!-- Created with Inkscape (http://www.inkscape.org/) -->

<svg
   width="297mm"
   height="110mm"
   viewBox="0 0 297 110"
   version="1.1"
   id="svg5"
   xml:space="preserve"
   inkscape:version="1.4 (e7c3feb1, 2024-10-09)"
   sodipodi:docname="spack-banner.svg"
   xmlns:inkscape="http://www.inkscape.org/namespaces/inkscape"
   xmlns:sodipodi="http://sodipodi.sourceforge.net/DTD/sodipodi-0.dtd"
   xmlns="http://www.w3.org/2000/svg"
   xmlns:svg="http://www.w3.org/2000/svg"><sodipodi:namedview
     id="namedview7"
     pagecolor="#ffffff"
     bordercolor="#000000"
     borderopacity="0.25"
     inkscape:showpageshadow="2"
     inkscape:pageopacity="0.0"
     inkscape:pagecheckerboard="0"
     inkscape:deskcolor="#d1d1d1"
     inkscape:document-units="mm"
     showgrid="false"
     inkscape:zoom="0.96978819"
     inkscape:cx="384.62007"
     inkscape:cy="361.41913"
     inkscape:window-width="1512"
     inkscape:window-height="916"
     inkscape:window-x="0"
     inkscape:window-y="38"
     inkscape:window-maximized="0"
     inkscape:current-layer="g2089" /><defs
     id="defs2" /><g
     inkscape:label="Layer 1"
     inkscape:groupmode="layer"
     id="layer1"><g
       id="g326"
       transform="matrix(0.26458333,0,0,0.26458333,7.3005508,10.311921)"><g
         id="g680"
         transform="translate(-14.458294,3.5373836)"><g
           id="g2089"
           transform="translate(-15.798728,1.3030671)"><rect
             x="101.78551"
             y="-564.5907"
             width="159.56094"
             height="84.312119"
             transform="rotate(90)"
             fill="#2f2e41"
             id="rect490"
             style="stroke-width:0.513146" /><rect
             x="465.79425"
             y="78.548294"
             width="113.28089"
             height="44.966465"
             fill="#3f3d56"
             id="rect492"
             style="stroke-width:0.43237" /><rect
             x="465.79425"
             y="128.7032"
             width="113.28089"
             height="44.966465"
             fill="#3f3d56"
             id="rect494"
             style="stroke-width:0.43237" /><rect
             x="465.79425"
             y="178.85808"
             width="113.28089"
             height="44.966465"
             fill="#3f3d56"
             id="rect496"
             style="stroke-width:0.43237" /><rect
             x="465.79425"
             y="97.614212"
             width="113.28089"
             height="6.9179177"
             fill="#f9a826"
             id="rect498"
             style="stroke-width:0.43237" /><rect
             x="465.79425"
             y="147.76912"
             width="113.28089"
             height="6.9179177"
             fill="#f9a826"
             id="rect500"
             style="stroke-width:0.43237" /><rect
             x="465.79425"
             y="197.924"
             width="113.28089"
             height="6.9179177"
             fill="#f9a826"
             id="rect502"
             style="stroke-width:0.43237" /><circle
             cx="557.02423"
             cy="85.033829"
             r="2.594219"
             fill="#f9a826"
             id="circle504"
             style="stroke-width:0.43237" /><circle
             cx="566.10406"
             cy="85.033829"
             r="2.594219"
             fill="#f9a826"
             id="circle506"
             style="stroke-width:0.43237" /><circle
             cx="575.18384"
             cy="85.033829"
             r="2.594219"
             fill="#f9a826"
             id="circle508"
             style="stroke-width:0.43237" /><circle
             cx="557.02423"
             cy="134.32405"
             r="2.594219"
             fill="#f9a826"
             id="circle510"
             style="stroke-width:0.43237" /><circle
             cx="566.10406"
             cy="134.32405"
             r="2.594219"
             fill="#f9a826"
             id="circle512"
             style="stroke-width:0.43237" /><circle
             cx="575.18384"
             cy="134.32405"
             r="2.594219"
             fill="#f9a826"
             id="circle514"
             style="stroke-width:0.43237" /><circle
             cx="557.02423"
             cy="183.61418"
             r="2.594219"
             fill="#f9a826"
             id="circle516"
             style="stroke-width:0.43237" /><circle
             cx="566.10406"
             cy="183.61418"
             r="2.594219"
             fill="#f9a826"
             id="circle518"
             style="stroke-width:0.43237" /><circle
             cx="575.18384"
             cy="183.61418"
             r="2.594219"
             fill="#f9a826"
             id="circle520"
             style="stroke-width:0.43237" /><rect
             y="273.2114"
             width="177.57841"
             height="0.3999514"
             fill="#3f3d56"
             id="rect522"
             x="436.19507"
             style="stroke-width:0.199975" /><rect
             y="378.7757"
             width="290.25473"
             height="0.65372682"
             fill="#3f3d56"
             id="rect522-9"
             x="-306.09766"
             style="stroke-width:0.326863"
             transform="rotate(-89.748831)" /><rect
             y="672.37"
             width="290.25473"
             height="0.65372682"
             fill="#3f3d56"
             id="rect522-9-7"
             x="-307.66815"
             style="stroke-width:0.326863"
             transform="rotate(-89.748831)" /><rect
             x="467.07416"
             y="228.75914"
             width="113.28089"
             height="44.966465"
             fill="#3f3d56"
             id="rect494-6"
             style="stroke-width:0.43237" /><rect
             x="467.07416"
             y="247.82506"
             width="113.28089"
             height="6.9179177"
             fill="#f9a826"
             id="rect500-7"
             style="stroke-width:0.43237" /><circle
             cx="558.30414"
             cy="234.3799"
             r="2.594219"
             fill="#f9a826"
             id="circle510-7"
             style="stroke-width:0.43237" /><circle
             cx="567.38397"
             cy="234.3799"
             r="2.594219"
             fill="#f9a826"
             id="circle512-5"
             style="stroke-width:0.43237" /><circle
             cx="576.46375"
             cy="234.3799"
             r="2.594219"
             fill="#f9a826"
             id="circle514-9"
             style="stroke-width:0.43237" /><path
             d="m 315.7201,160.58461 a 115.53743,115.53743 0 0 1 -27.32901,74.79054 c -0.64218,0.7626 -1.29641,1.51315 -1.96266,2.25969 a 116.63229,116.63229 0 0 1 -27.08819,22.47248 q -3.47984,2.08911 -7.11221,3.9374 c -0.24483,0.12443 -0.49368,0.24885 -0.73851,0.36926 -0.293,0.14851 -0.59001,0.293 -0.88702,0.43749 a 114.85457,114.85457 0 0 1 -19.07293,7.31289 q -1.02348,0.28898 -2.05098,0.56191 a 115.82934,115.82934 0 0 1 -26.42594,3.80897 c -0.46559,0.012 -0.92314,0.0201 -1.36465,0.0281 -0.15653,0.004 -0.30905,0.008 -0.46157,0.008 -0.5017,0.004 -0.9994,0.008 -1.50111,0.008 a 116.10361,116.10361 0 0 1 -27.91099,-3.38352 q -1.37267,-0.33715 -2.7333,-0.71042 a 114.57901,114.57901 0 0 1 -14.03577,-4.82843 q -3.61229,-1.50512 -7.09615,-3.24705 c -0.52579,-0.2649 -1.05158,-0.52981 -1.56934,-0.80273 -0.22075,-0.10837 -0.43749,-0.22477 -0.65423,-0.33715 a 116.57997,116.57997 0 0 1 -32.77153,-25.71151 c -0.64219,-0.71844 -1.27234,-1.44893 -1.89445,-2.18343 A 116.00494,116.00494 0 0 1 130.9633,67.162651 c 0.65824,-0.485653 1.32049,-0.967292 1.99077,-1.43689 q 0.19866,-0.138471 0.39736,-0.276943 a 115.09282,115.09282 0 0 1 38.97264,-17.5999 c 0.7947,-0.196669 1.58941,-0.381297 2.39214,-0.553885 a 117.11774,117.11774 0 0 1 46.02865,-0.806746 c 0.79872,0.148506 1.59744,0.301025 2.39214,0.465585 a 115.30474,115.30474 0 0 1 38.97265,15.825862 c 0.2649,0.168574 0.5298,0.337148 0.7947,0.513749 0.53382,0.345175 1.06763,0.698377 1.59342,1.055592 a 115.86866,115.86866 0 0 1 51.22233,96.235535 z"
             fill="#f2f2f2"
             id="path872"
             style="stroke-width:0.401366" /><path
             d="m 170.42561,220.59284 -37.07418,3.2912 -0.39736,0.0361 V 65.725761 q 0.19866,-0.138471 0.39736,-0.276943 a 115.72289,115.72289 0 0 1 24.8887,-13.220996 l 1.89445,26.128927 0.17259,2.392142 1.87438,25.912189 0.57796,7.97113 7.59786,105.03749 z"
             fill="#cccccc"
             id="path874"
             style="stroke-width:0.401366" /><path
             d="m 262.10965,62.779734 c 0.2649,0.168574 0.5298,0.337148 0.7947,0.513749 V 223.92016 l -0.7947,-0.0722 -36.67282,-3.25508 0.0682,-0.92314 7.59786,-105.03749 0.57797,-7.97113 1.87438,-25.912189 0.17259,-2.392142 1.98676,-27.401258 a 115.46769,115.46769 0 0 1 24.39503,11.824243 z"
             fill="#cccccc"
             id="path876"
             style="stroke-width:0.401366" /><path
             d="M 262.10965,62.779734 V 226.11162 c 0,3.13467 -2.15935,5.68335 -4.8164,5.68335 H 138.16782 c -2.19949,0 -4.06584,-1.74996 -4.63177,-4.13809 a 6.4650915,6.4650915 0 0 1 -0.18462,-1.54526 V 65.448818 q -0.19868,0.138496 -0.39736,0.276943 c -0.67028,0.469598 -1.33253,0.951237 -1.99077,1.43689 V 226.11162 a 9.1987633,9.1987633 0 0 0 2.48044,6.42186 6.8472762,6.8472762 0 0 0 3.12263,1.87036 6.0678234,6.0678234 0 0 0 1.60145,0.21273 h 119.12543 a 6.1202498,6.1202498 0 0 0 1.60547,-0.21273 c 3.2029,-0.86293 5.59905,-4.25046 5.59905,-8.29222 V 64.349075 c -0.52579,-0.357215 -1.0596,-0.710417 -1.59342,-1.055592 -0.2649,-0.176601 -0.5298,-0.345175 -0.7947,-0.513749 z"
             fill="#cccccc"
             id="path878"
             style="stroke-width:0.401366" /><rect
             x="132.15744"
             y="78.358353"
             width="131.14725"
             height="2.3917441"
             fill="#cccccc"
             id="rect880"
             style="stroke-width:0.401366" /><path
             d="m 172.32407,47.848918 c 0.7947,-0.196669 1.58941,-0.381297 2.39214,-0.553885 v 64.945037 h -2.39214 z"
             fill="#cccccc"
             id="path882"
             style="stroke-width:0.401366" /><path
             d="m 220.74486,46.488287 c 0.79872,0.148506 1.59744,0.301025 2.39214,0.465585 v 65.286198 h -2.39214 z"
             fill="#cccccc"
             id="path884"
             style="stroke-width:0.401366" /><path
             d="M 278.25259,219.6697 H 121.19405 a 10.764637,10.764637 0 0 0 0,21.52927 h 157.05854 a 10.740711,10.740711 0 0 0 8.07548,-3.65644 10.875414,10.875414 0 0 0 1.21213,-1.67771 10.251069,10.251069 0 0 0 0.70239,-1.42887 10.75793,10.75793 0 0 0 -9.99,-14.76625 z"
             fill="#cccccc"
             id="path886"
             style="stroke-width:0.401366" /><rect
             x="132.95468"
             y="106.66064"
             width="130.34999"
             height="7.9724774"
             fill="#cccccc"
             id="rect888"
             style="stroke-width:0.401366" /><path
             d="m 196.9338,104.2689 h 2.39174 a 4.3848595,4.3848595 0 0 1 4.38486,4.38486 v 0 h -11.16147 v 0 a 4.3848595,4.3848595 0 0 1 4.38486,-4.38486 z"
             fill="#cccccc"
             id="path890"
             style="stroke-width:0.401366" /><path
             d="M 288.39109,235.37515 A 115.99639,115.99639 0 0 1 277.10468,246.9947 H 122.34597 a 115.99639,115.99639 0 0 1 -11.28641,-11.61955 z"
             fill="#3f3d56"
             id="path892"
             style="stroke-width:0.401366" /><path
             d="m 212.68142,195.13018 h -26.05668 a 1.2742809,1.2742809 0 0 0 -0.41341,0.0642 1.38391,1.38391 0 0 0 -0.97532,1.32451 V 237.683 h 28.83815 v -41.16409 a 1.3900429,1.3900429 0 0 0 -1.39274,-1.38873 z m -9.86156,20.30912 a 3.0227959,3.0227959 0 0 1 -0.62613,1.84628 3.0764705,3.0764705 0 0 1 -5.53083,-1.84628 v -4.77626 a 3.0786098,3.0786098 0 0 1 6.15696,0 z"
             fill="#2f2e41"
             id="path894"
             style="stroke-width:0.401366" /><path
             d="m 185.14771,236.36652 v 3.96951 a 0.77853368,0.77853368 0 0 0 0.77464,0.77865 h 27.46547 a 0.78114658,0.78114658 0 0 0 0.77464,-0.77865 v -3.96951 z"
             fill="#3f3d56"
             id="path896"
             style="stroke-width:0.401366" /><path
             d="M 255.82827,130.89155 H 144.4492 a 3.6168978,3.6168978 0 0 0 -3.6123,3.60828 v 75.1598 a 3.6151439,3.6151439 0 0 0 3.6123,3.61229 h 111.37907 a 3.6151599,3.6151599 0 0 0 3.61229,-3.61229 v -75.1598 a 3.6169139,3.6169139 0 0 0 -3.61229,-3.60828 z"
             fill="#3f3d56"
             id="path898"
             style="stroke-width:0.401366" /><path
             d="M 254.8971,133.50043 H 145.37635 a 1.9347688,1.9347688 0 0 0 -1.93057,1.93458 v 73.29746 a 1.9338979,1.9338979 0 0 0 1.93057,1.93057 H 254.8971 a 1.9339139,1.9339139 0 0 0 1.93057,-1.93057 v -73.29746 a 1.9347849,1.9347849 0 0 0 -1.93057,-1.93458 z"
             fill="#5d75f3"
             id="path900"
             style="stroke-width:0.401366;fill:#4e80ee;fill-opacity:1" /><path
             d="m 234.7405,241.05047 -1.01145,-4.80436 a 1.2010397,1.2010397 0 0 0 -0.74654,-0.87096 1.1616777,1.1616777 0 0 0 -0.42544,-0.0803 h -63.13889 a 1.161774,1.161774 0 0 0 -0.42545,0.0803 1.201136,1.201136 0 0 0 -0.74654,0.87096 l -1.01144,4.80436 a 1.1989766,1.1989766 0 0 0 1.17198,1.44491 h 65.15776 a 1.1833836,1.1833836 0 0 0 0.93117,-0.44551 1.1980535,1.1980535 0 0 0 0.24484,-0.9994 z"
             fill="#2f2e41"
             id="path902"
             style="stroke-width:0.401366" /><rect
             x="169.88095"
             y="236.16013"
             width="2.0068302"
             height="1.2040981"
             rx="0.19594288"
             fill="#3f3d56"
             id="rect904"
             style="stroke-width:0.401366" /><rect
             x="173.89461"
             y="236.16013"
             width="2.0068302"
             height="1.2040981"
             rx="0.19594288"
             fill="#3f3d56"
             id="rect906"
             style="stroke-width:0.401366" /><rect
             x="177.90828"
             y="236.16013"
             width="2.0068302"
             height="1.2040981"
             rx="0.19594288"
             fill="#3f3d56"
             id="rect908"
             style="stroke-width:0.401366" /><rect
             x="181.92194"
             y="236.16013"
             width="2.0068302"
             height="1.2040981"
             rx="0.19594288"
             fill="#3f3d56"
             id="rect910"
             style="stroke-width:0.401366" /><rect
             x="185.93559"
             y="236.16013"
             width="2.0068302"
             height="1.2040981"
             rx="0.19594288"
             fill="#3f3d56"
             id="rect912"
             style="stroke-width:0.401366" /><rect
             x="189.94925"
             y="236.16013"
             width="2.0068302"
             height="1.2040981"
             rx="0.19594288"
             fill="#3f3d56"
             id="rect914"
             style="stroke-width:0.401366" /><rect
             x="193.96292"
             y="236.16013"
             width="2.0068302"
             height="1.2040981"
             rx="0.19594288"
             fill="#3f3d56"
             id="rect916"
             style="stroke-width:0.401366" /><rect
             x="197.97658"
             y="236.16013"
             width="2.0068302"
             height="1.2040981"
             rx="0.19594288"
             fill="#3f3d56"
             id="rect918"
             style="stroke-width:0.401366" /><rect
             x="201.99023"
             y="236.16013"
             width="2.0068302"
             height="1.2040981"
             rx="0.19594288"
             fill="#3f3d56"
             id="rect920"
             style="stroke-width:0.401366" /><rect
             x="206.00389"
             y="236.16013"
             width="2.0068302"
             height="1.2040981"
             rx="0.19594288"
             fill="#3f3d56"
             id="rect922"
             style="stroke-width:0.401366" /><rect
             x="210.01756"
             y="236.16013"
             width="2.0068302"
             height="1.2040981"
             rx="0.19594288"
             fill="#3f3d56"
             id="rect924"
             style="stroke-width:0.401366" /><rect
             x="214.03122"
             y="236.16013"
             width="2.0068302"
             height="1.2040981"
             rx="0.19594288"
             fill="#3f3d56"
             id="rect926"
             style="stroke-width:0.401366" /><rect
             x="218.04488"
             y="236.16013"
             width="2.0068302"
             height="1.2040981"
             rx="0.19594288"
             fill="#3f3d56"
             id="rect928"
             style="stroke-width:0.401366" /><rect
             x="222.05853"
             y="236.16013"
             width="2.0068302"
             height="1.2040981"
             rx="0.19594288"
             fill="#3f3d56"
             id="rect930"
             style="stroke-width:0.401366" /><rect
             x="226.07219"
             y="236.16013"
             width="2.0068302"
             height="1.2040981"
             rx="0.19594288"
             fill="#3f3d56"
             id="rect932"
             style="stroke-width:0.401366" /><rect
             x="230.08586"
             y="236.16013"
             width="2.0068302"
             height="1.2040981"
             rx="0.19594288"
             fill="#3f3d56"
             id="rect934"
             style="stroke-width:0.401366" /><rect
             x="169.83353"
             y="238.16696"
             width="2.0068302"
             height="1.2040981"
             rx="0.19594288"
             fill="#3f3d56"
             id="rect936"
             style="stroke-width:0.401366" /><rect
             x="173.84718"
             y="238.16696"
             width="2.0068302"
             height="1.2040981"
             rx="0.19594288"
             fill="#3f3d56"
             id="rect938"
             style="stroke-width:0.401366" /><rect
             x="177.86084"
             y="238.16696"
             width="2.0068302"
             height="1.2040981"
             rx="0.19594288"
             fill="#3f3d56"
             id="rect940"
             style="stroke-width:0.401366" /><rect
             x="181.87451"
             y="238.16696"
             width="2.0068302"
             height="1.2040981"
             rx="0.19594288"
             fill="#3f3d56"
             id="rect942"
             style="stroke-width:0.401366" /><rect
             x="185.88817"
             y="238.16696"
             width="2.0068302"
             height="1.2040981"
             rx="0.19594288"
             fill="#3f3d56"
             id="rect944"
             style="stroke-width:0.401366" /><rect
             x="189.90182"
             y="238.16696"
             width="2.0068302"
             height="1.2040981"
             rx="0.19594288"
             fill="#3f3d56"
             id="rect946"
             style="stroke-width:0.401366" /><rect
             x="193.91548"
             y="238.16696"
             width="2.0068302"
             height="1.2040981"
             rx="0.19594288"
             fill="#3f3d56"
             id="rect948"
             style="stroke-width:0.401366" /><rect
             x="197.92915"
             y="238.16696"
             width="2.0068302"
             height="1.2040981"
             rx="0.19594288"
             fill="#3f3d56"
             id="rect950"
             style="stroke-width:0.401366" /><rect
             x="201.94281"
             y="238.16696"
             width="2.0068302"
             height="1.2040981"
             rx="0.19594288"
             fill="#3f3d56"
             id="rect952"
             style="stroke-width:0.401366" /><rect
             x="205.95647"
             y="238.16696"
             width="2.0068302"
             height="1.2040981"
             rx="0.19594288"
             fill="#3f3d56"
             id="rect954"
             style="stroke-width:0.401366" /><rect
             x="209.97012"
             y="238.16696"
             width="2.0068302"
             height="1.2040981"
             rx="0.19594288"
             fill="#3f3d56"
             id="rect956"
             style="stroke-width:0.401366" /><rect
             x="213.9838"
             y="238.16696"
             width="2.0068302"
             height="1.2040981"
             rx="0.19594288"
             fill="#3f3d56"
             id="rect958"
             style="stroke-width:0.401366" /><rect
             x="217.99745"
             y="238.16696"
             width="2.0068302"
             height="1.2040981"
             rx="0.19594288"
             fill="#3f3d56"
             id="rect960"
             style="stroke-width:0.401366" /><rect
             x="222.01111"
             y="238.16696"
             width="2.0068302"
             height="1.2040981"
             rx="0.19594288"
             fill="#3f3d56"
             id="rect962"
             style="stroke-width:0.401366" /><rect
             x="226.02477"
             y="238.16696"
             width="2.0068302"
             height="1.2040981"
             rx="0.19594288"
             fill="#3f3d56"
             id="rect964"
             style="stroke-width:0.401366" /><rect
             x="230.03844"
             y="238.16696"
             width="2.0068302"
             height="1.2040981"
             rx="0.19594288"
             fill="#3f3d56"
             id="rect966"
             style="stroke-width:0.401366" /><rect
             x="189.09909"
             y="240.57516"
             width="16.054642"
             height="1.2040981"
             rx="0.19594288"
             fill="#3f3d56"
             id="rect968"
             style="stroke-width:0.401366" /><path
             d="M 249.39362,143.59747 H 146.9155 a 0.40762332,0.40762332 0 0 1 0,-0.81505 h 102.47812 a 0.40762332,0.40762332 0 0 1 0,0.81505 z"
             fill="#3f3d56"
             id="path970"
             style="stroke-width:0.401366" /><ellipse
             cx="153.89131"
             cy="138.26015"
             rx="2.3883004"
             ry="2.4415257"
             fill="#3f3d56"
             id="ellipse972"
             style="stroke-width:0.401366" /><ellipse
             cx="162.1418"
             cy="138.26015"
             rx="2.3883004"
             ry="2.4415257"
             fill="#3f3d56"
             id="ellipse974"
             style="stroke-width:0.401366" /><ellipse
             cx="170.39229"
             cy="138.26015"
             rx="2.3883004"
             ry="2.4415257"
             fill="#3f3d56"
             id="ellipse976"
             style="stroke-width:0.401366" /><path
             d="m 244.42546,136.42237 h -5.85995 a 0.44362986,0.44362986 0 0 0 0,0.88702 h 5.85995 a 0.4435536,0.4435536 0 0 0 0,-0.88702 z"
             fill="#3f3d56"
             id="path978"
             style="stroke-width:0.401366" /><path
             d="m 244.42546,138.08804 h -5.85995 a 0.44361782,0.44361782 0 0 0 0,0.88702 h 5.85995 a 0.44354156,0.44354156 0 0 0 0,-0.88702 z"
             fill="#3f3d56"
             id="path980"
             style="stroke-width:0.401366" /><path
             d="m 244.42546,139.75371 h -5.85995 a 0.44362986,0.44362986 0 0 0 0,0.88702 h 5.85995 a 0.4435536,0.4435536 0 0 0 0,-0.88702 z"
             fill="#3f3d56"
             id="path982"
             style="stroke-width:0.401366" /><rect
             x="152.4902"
             y="153.06834"
             width="4.4174705"
             height="2.3118362"
             rx="1.1559181"
             fill="#e6e6e6"
             id="rect984"
             style="stroke-width:0.401366" /><rect
             x="176.57217"
             y="153.06834"
             width="4.4174705"
             height="2.3118362"
             rx="1.1559181"
             fill="#e6e6e6"
             id="rect986"
             style="stroke-width:0.401366" /><rect
             x="183.3954"
             y="153.06834"
             width="4.4174705"
             height="2.3118362"
             rx="1.1559181"
             fill="#e6e6e6"
             id="rect988"
             style="stroke-width:0.401366" /><rect
             x="159.04057"
             y="152.87561"
             width="15.398688"
             height="2.3118362"
             rx="1.1559181"
             fill="#e6e6e6"
             id="rect990"
             style="stroke-width:0.401366" /><rect
             x="191.14986"
             y="152.87561"
             width="15.398688"
             height="2.3118362"
             rx="1.1559181"
             fill="#e6e6e6"
             id="rect992"
             style="stroke-width:0.401366" /><rect
             x="158.91206"
             y="158.2861"
             width="4.4174705"
             height="2.3118362"
             rx="1.1559181"
             fill="#e6e6e6"
             id="rect994"
             style="stroke-width:0.401366" /><rect
             x="182.99403"
             y="158.2861"
             width="4.4174705"
             height="2.3118362"
             rx="1.1559181"
             fill="#e6e6e6"
             id="rect996"
             style="stroke-width:0.401366" /><rect
             x="189.81725"
             y="158.2861"
             width="4.4174705"
             height="2.3118362"
             rx="1.1559181"
             fill="#e6e6e6"
             id="rect998"
             style="stroke-width:0.401366" /><rect
             x="165.46243"
             y="158.09337"
             width="15.398688"
             height="2.3118362"
             rx="1.1559181"
             fill="#e6e6e6"
             id="rect1000"
             style="stroke-width:0.401366" /><rect
             x="197.57172"
             y="158.09337"
             width="15.398688"
             height="2.3118362"
             rx="1.1559181"
             fill="#e6e6e6"
             id="rect1002"
             style="stroke-width:0.401366" /><rect
             x="165.33392"
             y="163.50386"
             width="4.4174705"
             height="2.3118362"
             rx="1.1559181"
             fill="#e6e6e6"
             id="rect1004"
             style="stroke-width:0.401366" /><rect
             x="189.41588"
             y="163.50386"
             width="4.4174705"
             height="2.3118362"
             rx="1.1559181"
             fill="#e6e6e6"
             id="rect1006"
             style="stroke-width:0.401366" /><rect
             x="196.23911"
             y="163.50386"
             width="4.4174705"
             height="2.3118362"
             rx="1.1559181"
             fill="#e6e6e6"
             id="rect1008"
             style="stroke-width:0.401366" /><rect
             x="171.88429"
             y="163.31113"
             width="15.398688"
             height="2.3118362"
             rx="1.1559181"
             fill="#e6e6e6"
             id="rect1010"
             style="stroke-width:0.401366" /><rect
             x="203.99358"
             y="163.31113"
             width="15.398688"
             height="2.3118362"
             rx="1.1559181"
             fill="#e6e6e6"
             id="rect1012"
             style="stroke-width:0.401366" /><rect
             x="171.75578"
             y="168.72162"
             width="4.4174705"
             height="2.3118362"
             rx="1.1559181"
             fill="#e6e6e6"
             id="rect1014"
             style="stroke-width:0.401366" /><rect
             x="195.83774"
             y="168.72162"
             width="4.4174705"
             height="2.3118362"
             rx="1.1559181"
             fill="#e6e6e6"
             id="rect1016"
             style="stroke-width:0.401366" /><rect
             x="202.66096"
             y="168.72162"
             width="4.4174705"
             height="2.3118362"
             rx="1.1559181"
             fill="#e6e6e6"
             id="rect1018"
             style="stroke-width:0.401366" /><rect
             x="178.30614"
             y="168.52888"
             width="15.398688"
             height="2.3118362"
             rx="1.1559181"
             fill="#e6e6e6"
             id="rect1020"
             style="stroke-width:0.401366" /><rect
             x="176.57217"
             y="189.46964"
             width="4.4174705"
             height="2.3118362"
             rx="1.1559181"
             fill="#e6e6e6"
             id="rect1022"
             style="stroke-width:0.401366" /><rect
             x="183.3954"
             y="189.46964"
             width="4.4174705"
             height="2.3118362"
             rx="1.1559181"
             fill="#e6e6e6"
             id="rect1024"
             style="stroke-width:0.401366" /><rect
             x="191.14986"
             y="189.66235"
             width="15.398688"
             height="2.3118362"
             rx="1.1559181"
             fill="#e6e6e6"
             id="rect1026"
             style="stroke-width:0.401366" /><rect
             x="152.4902"
             y="189.46964"
             width="4.4174705"
             height="2.3118362"
             rx="1.1559181"
             fill="#e6e6e6"
             id="rect1028"
             style="stroke-width:0.401366" /><rect
             x="159.04057"
             y="189.66235"
             width="15.398688"
             height="2.3118362"
             rx="1.1559181"
             fill="#e6e6e6"
             id="rect1030"
             style="stroke-width:0.401366" /><rect
             x="158.91206"
             y="184.25188"
             width="4.4174705"
             height="2.3118362"
             rx="1.1559181"
             fill="#e6e6e6"
             id="rect1032"
             style="stroke-width:0.401366" /><rect
             x="182.99403"
             y="184.25188"
             width="4.4174705"
             height="2.3118362"
             rx="1.1559181"
             fill="#e6e6e6"
             id="rect1034"
             style="stroke-width:0.401366" /><rect
             x="189.81725"
             y="184.25188"
             width="4.4174705"
             height="2.3118362"
             rx="1.1559181"
             fill="#e6e6e6"
             id="rect1036"
             style="stroke-width:0.401366" /><rect
             x="165.46243"
             y="184.4446"
             width="15.398688"
             height="2.3118362"
             rx="1.1559181"
             fill="#e6e6e6"
             id="rect1038"
             style="stroke-width:0.401366" /><rect
             x="165.33392"
             y="179.03412"
             width="4.4174705"
             height="2.3118362"
             rx="1.1559181"
             fill="#e6e6e6"
             id="rect1040"
             style="stroke-width:0.401366" /><rect
             x="189.41588"
             y="179.03412"
             width="4.4174705"
             height="2.3118362"
             rx="1.1559181"
             fill="#e6e6e6"
             id="rect1042"
             style="stroke-width:0.401366" /><rect
             x="196.23911"
             y="179.03412"
             width="4.4174705"
             height="2.3118362"
             rx="1.1559181"
             fill="#e6e6e6"
             id="rect1044"
             style="stroke-width:0.401366" /><rect
             x="171.88429"
             y="179.22684"
             width="15.398688"
             height="2.3118362"
             rx="1.1559181"
             fill="#e6e6e6"
             id="rect1046"
             style="stroke-width:0.401366" /><rect
             x="171.75578"
             y="173.81636"
             width="4.4174705"
             height="2.3118362"
             rx="1.1559181"
             fill="#e6e6e6"
             id="rect1048"
             style="stroke-width:0.401366" /><rect
             x="195.83774"
             y="173.81636"
             width="4.4174705"
             height="2.3118362"
             rx="1.1559181"
             fill="#e6e6e6"
             id="rect1050"
             style="stroke-width:0.401366" /><rect
             x="202.66096"
             y="173.81636"
             width="4.4174705"
             height="2.3118362"
             rx="1.1559181"
             fill="#e6e6e6"
             id="rect1052"
             style="stroke-width:0.401366" /><rect
             x="178.30614"
             y="174.00908"
             width="15.398688"
             height="2.3118362"
             rx="1.1559181"
             fill="#e6e6e6"
             id="rect1054"
             style="stroke-width:0.401366" /><path
             d="m 250.62255,264.84746 c -0.24483,0.12442 -0.49368,0.24884 -0.73851,0.36925 -6.34159,3.1708 -11.41483,4.97293 -18.35447,6.94765 -0.586,-6.54227 -1.15192,-18.0414 -1.70179,-25.16966 -0.1445,-1.8503 -0.28899,-3.40359 -0.42947,-4.49932 a 6.0936593,6.0936593 0 0 0 -0.3532,-1.7058 l 0.0241,1.7058 0.0602,4.49932 0.34919,25.73157 a 115.82934,115.82934 0 0 1 -26.42594,3.80897 c -0.46559,0.012 -0.92314,0.0201 -1.36465,0.0281 -0.15653,0.004 -0.30905,0.008 -0.46157,0.008 -0.5017,0.004 -0.9994,0.008 -1.50111,0.008 a 116.10361,116.10361 0 0 1 -27.91099,-3.38352 c 0.19667,-6.47403 0.39334,-17.84473 0.58198,-26.20117 0.0401,-1.63356 0.0763,-3.15474 0.1164,-4.49932 0.0763,-2.87378 0.15653,-4.94483 0.23279,-5.63919 a 1.7503893,1.7503893 0 0 0 -0.15653,0.38933 38.994266,38.994266 0 0 0 -0.75858,5.24986 c -0.14048,1.34458 -0.28096,2.86576 -0.42144,4.49932 -0.74654,8.68154 -1.52519,20.48572 -2.32792,25.49075 a 114.57901,114.57901 0 0 1 -14.03577,-4.82843 q -3.61229,-1.50512 -7.09615,-3.24705 c 0.4415,-2.88984 0.90307,-6.12886 1.37668,-9.48829 0.36926,-2.60487 0.75056,-5.28198 1.13988,-7.92698 0.60205,-4.08591 1.22016,-8.09154 1.84629,-11.61955 0.91511,-5.15354 1.85431,-9.29564 2.78548,-11.19811 0.883,-1.80615 1.76601,-3.58821 2.62092,-5.29402 0.29701,-0.59803 0.59402,-1.18804 0.883,-1.762 0.0682,-0.13646 0.13647,-0.26891 0.2047,-0.40136 0.61409,-1.20811 1.20811,-2.36405 1.77404,-3.44774 0.48565,-0.92715 0.94724,-1.80213 1.38471,-2.60888 1.05961,-1.95866 1.95867,-3.51998 2.62493,-4.50734 a 22.178106,22.178106 0 0 1 11.752,-8.91434 l 0.12041,-0.0321 0.0843,0.0361 8.20793,-2.52058 1.20009,-0.36926 0.80674,-0.24884 2.84167,-2.16337 1.54526,-1.176 1.44893,-1.10376 2.83365,-2.15533 17.54371,1.07967 3.41562,8.22399 7.65004,2.79752 0.13245,-0.0602 0.1164,-0.0482 0.12041,0.0321 a 22.197949,22.197949 0 0 1 11.75199,8.91434 c 0.37726,0.56593 0.83484,1.31247 1.35261,2.21554 0.4415,0.76661 0.92314,1.64159 1.44491,2.60888 0.74253,1.37671 1.55329,2.93 2.41221,4.6117 0.18865,0.36926 0.3813,0.74654 0.57396,1.12784 q 0.53582,1.05958 1.0877,2.16334 c 0.85491,1.70581 1.73791,3.48787 2.62092,5.29803 0.76661,1.56934 1.54124,4.79633 2.30384,8.9023 0.63014,3.41161 1.25628,7.4333 1.86234,11.61955 0.7947,5.42646 -0.0522,11.92458 0.66627,16.91757 0.0442,0.3171 0.0923,0.62616 0.13646,0.93521 z"
             fill="#3f3d56"
             id="path1056"
             style="stroke-width:0.401366" /><circle
             cx="199.97218"
             cy="160.53975"
             r="20.404022"
             fill="#a0616a"
             id="circle1058"
             style="stroke-width:0.401366" /><path
             d="m 233.62069,133.50043 a 10.679732,10.679732 0 0 0 -1.59343,-2.60888 c -3.09854,-3.78488 -8.73372,-5.45055 -14.51741,-0.97131 a 6.1323711,6.1323711 0 0 0 -3.3514,0.19266 5.1817316,5.1817316 0 0 0 -1.41281,0.77865 6.4099799,6.4099799 0 0 0 -1.98275,2.60888 6.2298268,6.2298268 0 0 0 -0.4415,1.69778 20.295221,20.295221 0 0 0 -4.50734,-1.69778 24.218394,24.218394 0 0 0 -11.69179,0 14.667355,14.667355 0 0 0 -3.524,1.39675 c -1.87839,1.08369 -2.95807,2.45235 -3.15072,3.97352 -2.70922,0.15252 -5.52681,1.57737 -7.62596,3.91332 -0.2368,0.26089 -0.46558,0.53382 -0.6783,0.81478 a 13.128093,13.128093 0 0 0 -2.69718,8.04738 v 0.50974 h 0.50973 a 10.784857,10.784857 0 0 1 4.07387,0.7947 11.071782,11.071782 0 0 1 2.36404,1.30444 11.544892,11.544892 0 0 1 1.35261,1.12383 13.439023,13.439023 0 0 1 2.45636,3.231 15.03497,15.03497 0 0 1 1.63757,9.91775 14.529269,14.529269 0 0 1 -0.61008,2.31187 15.085113,15.085113 0 0 1 -1.48907,3.06242 c -0.0241,0.0361 -0.0442,0.0722 -0.0682,0.10837 -0.26891,0.42946 -0.52579,0.86695 -0.76661,1.30845 -0.18061,0.32912 -0.34919,0.66627 -0.50572,1.00342 a 20.85365,20.85365 0 0 0 -1.15593,2.90589 21.507784,21.507784 0 0 0 -0.97934,5.43449 c -0.0281,0.48967 -0.0361,0.97934 -0.0201,1.469 a 20.862777,20.862777 0 0 0 0.4134,3.75681 c 0.0361,0.16857 0.0723,0.33313 0.10837,0.50171 l 0.293,1.28035 0.69436,3.0544 0.48164,2.10316 0.44552,1.95064 0.65824,-0.94321 c 0.22476,-0.3211 0.79069,-1.30846 1.54927,-2.70521 0.50171,-0.9111 1.08369,-1.9988 1.71383,-3.18685 0.87897,-1.66567 1.84227,-3.52399 2.78546,-5.3783 0.3813,-0.75056 0.75858,-1.4971 1.12384,-2.22758 0.69035,-1.38472 1.34057,-2.72126 1.89847,-3.90931 0.51374,-1.09573 0.95123,-2.06703 1.27634,-2.84568 0.10034,0.50973 0.18463,1.02749 0.24885,1.54927 0.0722,0.5298 0.12442,1.06763 0.15252,1.60546 0.008,0.0803 0.012,0.16456 0.0161,0.24486 l 0.0161,0.32912 0.004,0.0963 0.42545,0.0562 a 37.335846,37.335846 0 0 0 7.38513,0.0562 h 0.004 a 30.047003,30.047003 0 0 0 9.45618,-2.2918 19.770158,19.770158 0 0 0 4.73612,-2.90589 16.576417,16.576417 0 0 0 1.87036,-1.81418 c 0.1445,-0.16456 0.28497,-0.32912 0.42144,-0.49769 a 16.505997,16.505997 0 0 0 2.0269,-3.17079 16.777758,16.777758 0 0 0 0.93919,-2.31187 c 1.54125,-4.66789 1.45295,-10.49171 -0.2649,-17.41126 a 3.982755,3.982755 0 0 0 1.31247,-0.50572 c 1.26029,-0.75856 2.13527,-2.26368 2.40819,-4.10196 l 0.43348,0.1164 a 12.082723,12.082723 0 0 0 4.01767,-3.0263 9.6791222,9.6791222 0 0 0 0.61811,-0.81478 c 1.96268,-2.88987 1.97874,-6.35767 0.70641,-9.28363 z"
             fill="#2f2e41"
             id="path1060"
             style="stroke-width:0.401366" /><polygon
             points="222.32,470.8 206.32,475.296 214.817,442.504 "
             opacity="0.2"
             id="polygon1062"
             transform="matrix(0.40136602,0,0,0.40136602,83.730545,44.589826)" /><path
             d="m 257.29325,226.7819 c -1.22015,16.80921 0.0442,24.2104 -6.69077,38.06957 a 114.85457,114.85457 0 0 1 -19.07291,7.31289 q -1.02348,0.28898 -2.05098,0.56191 a 115.82934,115.82934 0 0 1 -26.42594,3.80897 c -0.46559,0.012 -0.92314,0.0201 -1.36465,0.0281 -0.15653,0.004 -0.30905,0.008 -0.46157,0.008 -0.5017,0.004 -0.9994,0.008 -1.50111,0.008 a 116.10361,116.10361 0 0 1 -27.91099,-3.38352 q -1.37267,-0.33715 -2.7333,-0.71042 a 114.57901,114.57901 0 0 1 -14.03577,-4.82843 q -3.61229,-1.50512 -7.09615,-3.24705 c -0.52579,-0.2649 -1.05158,-0.52981 -1.56934,-0.80273 -2.66106,-4.67993 -4.17421,-10.3713 -4.20632,-17.21058 1.84227,-11.78411 111.04995,-29.77734 115.1198,-19.61476 z"
             fill="#2f2e41"
             id="path1064"
             style="stroke-width:0.401366" /><path
             d="m 257.29009,229.66057 c 0.0623,-1.04063 0.13199,-2.11557 0.21325,-3.23496 -4.06985,-10.16259 -113.27753,7.83065 -115.1198,19.61476 0.005,1.08041 0.0513,2.1289 0.12895,3.15255 4.46142,-11.6309 108.21018,-28.73231 114.7776,-19.53235 z"
             opacity="0.2"
             id="path1066"
             style="stroke-width:0.401366" /><path
             d="m 149.19154,181.91786 a 2.5545141,2.5545141 0 0 0 -2.71032,-2.73556 2.3496368,2.3496368 0 0 0 -0.4034,0.0505 l -15.95915,3.6053 a 2.6279922,2.6279922 0 0 0 -1.68924,1.29846 3.2846631,3.2846631 0 0 0 -0.69332,0.10079 3.8777317,3.8777317 0 0 0 1.7144,7.5636 3.9309547,3.9309547 0 0 0 1.56313,-0.75633 l 5.40801,15.22806 a 2.5400449,2.5400449 0 0 0 2.78588,1.22275 l 10.37478,-2.3447 a 2.5752567,2.5752567 0 0 0 1.97909,-2.2943 z m -19.98055,8.79896 a 2.7736359,2.7736359 0 0 1 -1.23536,-5.40795 c 0.0504,-0.0126 0.10087,0 0.15127,-0.0126 a 2.611476,2.611476 0 0 0 0.34038,1.311 l 1.97908,3.45403 a 2.6109622,2.6109622 0 0 1 -1.23537,0.65553 z"
             fill="#2f2e41"
             id="path1068"
             style="stroke-width:0.401366" /><path
             d="m 146.48122,179.1823 c 0.15127,2.01701 -3.30276,4.33647 -7.92914,5.25676 -4.24829,0.86981 -8.05525,0.26467 -9.1268,-1.32362 a 2.4183266,2.4183266 0 0 1 0.69339,-0.27737 l 15.95915,-3.6053 a 2.3496368,2.3496368 0 0 1 0.4034,-0.0505 z"
             fill="#3f3d56"
             id="path1070"
             style="stroke-width:0.401366" /><path
             d="m 135.44388,230.38426 8.96398,-4.48198 -7.46999,-20.16896 -1.96867,-10.17142 a 7.6907228,7.6907228 0 0 0 -12.55561,-4.37782 v 0 a 7.6907188,7.6907188 0 0 0 -1.00041,10.64356 l 7.30775,9.13465 z"
             fill="#a0616a"
             id="path1072"
             style="stroke-width:0.401366" /><path
             d="m 144.40786,222.16729 -11.95197,5.97594 9.07029,28.42036 a 12.433035,12.433035 0 0 0 8.96478,8.31486 v 0 a 12.433039,12.433039 0 0 0 13.54106,-5.6982 l 24.0518,-41.22588 a 12.691298,12.691298 0 0 0 -4.09218,-17.25151 v 0 a 12.691342,12.691342 0 0 0 -18.18033,5.12348 l -14.68036,31.28099 z"
             fill="#3f3d56"
             id="path1074"
             style="stroke-width:0.401366" /><path
             d="m 140.71119,196.48335 a 0.19920598,0.19920598 0 0 1 -0.0653,-0.011 l -2.60947,-0.89837 a 0.20037396,0.20037396 0 0 1 -0.0825,-0.32533 l 1.94078,-2.11304 a 0.20057063,0.20057063 0 1 1 0.29554,0.27123 l -1.73344,1.88729 2.31961,0.79881 a 0.20064689,0.20064689 0 0 1 -0.0653,0.39039 z"
             fill="#5d75f3"
             id="path1076"
             style="stroke-width:0.401366;fill:#f2aa3c;fill-opacity:1" /><path
             d="m 144.28802,195.75117 a 0.20068301,0.20068301 0 0 1 -0.13954,-0.34493 l 1.76381,-1.7054 -2.36939,-0.97637 a 0.20053604,0.20053604 0 1 1 0.15286,-0.3708 l 2.65279,1.09318 a 0.20048634,0.20048634 0 0 1 0.0631,0.32964 l -1.9841,1.91824 a 0.20054655,0.20054655 0 0 1 -0.13953,0.0564 z"
             fill="#5d75f3"
             id="path1078"
             style="stroke-width:0.401366;fill:#f2aa3c;fill-opacity:1" /><path
             d="m 141.25895,197.71096 a 0.1935708,0.1935708 0 0 1 -0.059,-0.009 0.20058668,0.20058668 0 0 1 -0.13287,-0.25085 l 1.8522,-6.02049 a 0.20078737,0.20078737 0 0 1 0.38373,0.11837 l -1.8522,6.02049 a 0.20082349,0.20082349 0 0 1 -0.19186,0.1415 z"
             fill="#5d75f3"
             id="path1080"
             style="stroke-width:0.401366;fill:#f2aa3c;fill-opacity:1" /><rect
             x="775.2865"
             y="155.48972"
             width="42.064667"
             height="47.035946"
             fill="#cccccc"
             id="rect1407"
             style="stroke-width:0.382406" /><path
             d="m 796.87347,259.97541 -0.72265,9.87944 a 3.1450144,3.1450144 0 0 0 3.32688,3.36872 l 5.0745,-0.30735 a 1.6041475,1.6041475 0 0 0 1.459,-1.99019 l -2.81678,-11.26676 z"
             fill="#e6e6e6"
             id="path1411"
             style="stroke-width:0.382406" /><path
             d="m 839.31884,265.81745 c 5.97227,1.39708 10.23858,3.38289 13.04119,6.07044 a 5.7496241,5.7496241 0 0 0 3.68012,1.57758 c 1.75774,0.0924 3.19498,-0.10458 4.27509,-0.58703 h 1.7e-4 a 1.6941315,1.6941315 0 0 0 1.0037,-1.39608 1.72394,1.72394 0 0 0 -0.72216,-1.59343 l -14.16414,-10.07816 -6.01647,2.40686 -1.40349,1.40349 a 1.3897209,1.3897209 0 0 0 0.306,2.19634 z"
             fill="#e6e6e6"
             id="path1413"
             style="stroke-width:0.382406" /><path
             d="m 820.93948,104.51291 -40.48659,-0.37488 c 0.10181,-5.896946 1.47382,-11.687594 4.47289,-16.869376 1.96968,-3.403207 1.92712,-7.106917 1.45245,-10.22722 -0.73252,-4.815257 0.97088,-9.741978 4.75601,-12.807234 a 15.26412,15.26412 0 0 1 10.2648,-3.396278 l 0.78615,0.03277 a 15.299213,15.299213 0 0 1 12.56989,7.560103 12.744584,12.744584 0 0 1 1.51484,7.763122 c -0.25661,2.524373 0.35742,5.074459 1.79372,7.648832 2.47797,5.652948 3.01456,12.886625 2.87584,20.670171 z"
             fill="#2f2e41"
             id="path1415"
             style="stroke-width:0.382406" /><path
             d="m 848.02708,260.3364 -7.94594,2.07286 -38.69322,-84.29595 2.41834,82.22309 h -7.94594 c -8.49075,-38.68373 -23.82027,-83.32888 -16.92828,-97.424 l 41.11154,-2.41833 z"
             fill="#5d75f3"
             id="path1417"
             style="stroke-width:0.382406;fill:#4e80ee;fill-opacity:1" /><circle
             cx="801.04242"
             cy="79.652878"
             r="10.709733"
             fill="#ffb9b9"
             id="circle1419"
             style="stroke-width:0.382406" /><path
             d="m 810.37028,99.344968 -17.61923,-1.036427 c 1.72672,-3.963169 2.41647,-7.779527 1.72737,-11.400672 h 13.12806 c -0.0298,2.780325 1.35383,7.589774 2.7638,12.437099 z"
             fill="#ffb9b9"
             id="path1421"
             style="stroke-width:0.382406" /><polygon
             points="181.417,117.115 199.034,112.146 218.909,116.663 238.784,106.725 251.432,111.243 272.211,289.217 171.028,296.445 "
             fill="#5d75f3"
             id="polygon1423"
             transform="matrix(0.38240605,0,0,0.38240605,717.3303,53.004896)"
             style="fill:#4e80ee;fill-opacity:1" /><path
             d="m 789.29629,213.0063 -26.42884,-6.04581 c 7.85867,-26.06028 22.01645,-85.67855 17.44651,-106.92456 l 13.81901,-6.218553 z"
             fill="#e6e6e6"
             id="path1425"
             style="stroke-width:0.382406" /><path
             d="m 776.51371,137.69271 -10.01878,-6.21855 8.54425,-25.02442 a 11.805307,11.805307 0 0 1 5.16029,-6.12936 l 2.87827,-1.666362 -1.72738,25.219682 z"
             fill="#e6e6e6"
             id="path1427"
             style="stroke-width:0.382406" /><path
             d="m 844.39959,207.30597 c -8.34153,4.82601 -29.19253,7.51623 -38.34775,4.1457 -0.67368,-23.5458 -1.99487,-90.14802 2.24559,-118.325247 l 15.20091,6.218553 -1.38191,18.655664 c -7.26727,15.9589 13.83531,71.54386 22.28316,89.30533 z"
             fill="#e6e6e6"
             id="path1429"
             style="stroke-width:0.382406" /><polygon
             points="272.211,168.158 277.632,121.18 331.837,197.068 329.127,213.33 304.734,205.199 "
             fill="#e6e6e6"
             id="polygon1431"
             transform="matrix(0.38240605,0,0,0.38240605,717.3303,53.004896)" /><path
             d="m 813.95711,148.03048 a 2.5947665,2.5947665 0 0 0 3.0995,1.95494 l 7.9181,-1.79316 -1.14439,-5.0541 -7.91826,1.79283 a 2.591539,2.591539 0 0 0 -1.95494,3.09949 z"
             fill="#ffb9b9"
             id="path1433"
             style="stroke-width:0.382406" /><path
             d="m 810.37028,76.889064 c -5.94861,-2.44606 -11.82369,-2.623061 -17.61923,-0.345473 l -2.41834,-8.636882 h 22.11041 z"
             fill="#2f2e41"
             id="path1435"
             style="stroke-width:0.382406" /><path
             d="m 821.08001,142.18389 4.49118,8.29141 c 7.55408,-2.10689 14.10088,-8.74899 20.38303,-16.58281 l -1.72737,-5.52761 -10.70973,2.76381 z"
             fill="#e6e6e6"
             id="path1437"
             style="stroke-width:0.382406" /><path
             d="m 817.798,125.08287 h -1.3819 c 0,-19.54499 -4.02425,-33.165619 -7.94593,-33.165619 l -0.34548,-1.381901 c 3.51699,0 5.75922,5.668787 7.02084,10.42448 1.71051,6.44713 2.65247,15.01416 2.65247,24.12304 z"
             fill="#3f3d56"
             id="path1439"
             style="stroke-width:0.382406" /><path
             d="m 786.01428,120.24622 h -1.38192 c 0,-17.90011 4.05208,-29.01992 10.01879,-29.01992 l -0.34548,1.381901 c -4.12713,0 -8.29139,8.545959 -8.29139,27.638019 z"
             fill="#3f3d56"
             id="path1441"
             style="stroke-width:0.382406" /><circle
             cx="817.10706"
             cy="125.42834"
             r="3.454752"
             fill="#3f3d56"
             id="circle1443"
             style="stroke-width:0.382406" /><path
             d="m 780.48668,128.53762 h -1.3819 c 0,-4.95288 2.78961,-8.98235 6.21855,-8.98235 v 1.3819 c -2.66697,0 -4.83665,3.40954 -4.83665,7.60045 z"
             fill="#3f3d56"
             id="path1445"
             style="stroke-width:0.382406" /><path
             d="m 791.54188,128.53762 h -1.3819 c 0,-4.19091 -2.16968,-7.60045 -4.83665,-7.60045 v -1.38192 c 3.42894,0 6.21855,4.02949 6.21855,8.98237 z"
             fill="#3f3d56"
             id="path1447"
             style="stroke-width:0.382406" /><circle
             cx="790.85095"
             cy="128.88309"
             r="1.3819007"
             fill="#3f3d56"
             id="circle1449"
             style="stroke-width:0.382406" /><circle
             cx="779.79572"
             cy="128.88309"
             r="1.3819007"
             fill="#3f3d56"
             id="circle1451"
             style="stroke-width:0.382406" /><polygon
             points="140.724,169.219 192.258,242.495 164.88,236.053 118.177,165.193 "
             fill="#5d75f3"
             id="polygon1453"
             transform="matrix(0.38240605,0,0,0.38240605,717.3303,53.004896)"
             style="fill:#4e80ee;fill-opacity:1" /><path
             d="m 760.99263,115.83263 a 0.73333243,0.73333243 0 0 0 -0.60171,1.13613 l 18.42101,27.94925 a 0.7309424,0.7309424 0 0 0 0.44365,0.30988 l 8.57076,2.01651 a 0.73207432,0.73207432 0 0 0 0.76652,-1.13376 l -20.22514,-28.75761 a 0.72785256,0.72785256 0 0 0 -0.47014,-0.29942 l -6.76679,-1.20849 a 0.79390173,0.79390173 0 0 0 -0.13816,-0.0125 z"
             fill="#3f3d56"
             id="path1455"
             style="stroke-width:0.382406;fill:#3f3d56;fill-opacity:1" /><path
             d="m 772.48373,135.81605 0.51197,5.15682 8.07886,-0.80195 a 2.5910805,2.5910805 0 0 0 -0.5118,-5.15682 z"
             fill="#ffb9b9"
             id="path1457"
             style="stroke-width:0.382406" /><path
             d="m 765.45867,135.21872 a 6.6641673,6.6641673 0 0 0 6.6563,6.61969 h 1.32843 l 0.96711,-8.05945 -8.0075,-2.88273 z"
             fill="#e6e6e6"
             id="path1459"
             style="stroke-width:0.382406" /><rect
             x="886.56665"
             width="157.5513"
             height="82.982109"
             fill="#e6e6e6"
             id="rect1461"
             y="53.004894"
             style="stroke-width:0.382406" /><path
             d="M 891.15552,131.39814 H 1039.5291 V 57.593769 H 891.15552 Z"
             fill="#ffffff"
             id="path1463"
             style="stroke-width:0.382406" /><rect
             x="902.62769"
             y="68.30114"
             width="52.772034"
             height="52.772034"
             fill="#3f3d56"
             id="rect1465"
             style="stroke-width:0.382406" /><circle
             cx="942.78033"
             cy="90.863098"
             r="1.5296242"
             fill="#5d75f3"
             id="circle1467"
             style="stroke-width:0.382406;fill:#4e80ee;fill-opacity:1" /><circle
             cx="937.04425"
             cy="85.509407"
             r="1.5296242"
             fill="#5d75f3"
             id="circle1469"
             style="stroke-width:0.382406;fill:#4e80ee;fill-opacity:1" /><path
             d="m 936.27943,90.863095 a 3.0401702,3.0401702 0 0 0 -1.59381,0.451621 9.6076996,9.6076996 0 0 0 -1.4779,-1.734528 c 0.007,-0.08162 0.0125,-0.163406 0.0125,-0.246706 a 3.057019,3.057019 0 0 0 -5.18039,-2.201473 9.3715218,9.3715218 0 0 0 -2.47135,-0.02157 c 3.8e-4,-0.02398 0.003,-0.04729 0.003,-0.0714 a 3.0592484,3.0592484 0 1 0 -5.07047,2.301369 9.6138678,9.6138678 0 0 0 -1.38599,1.466 3.0590151,3.0590151 0 1 0 -1.95647,5.410376 l 0.01,-3.82e-4 c -0.005,0.12718 -0.01,0.254476 -0.01,0.382895 a 9.5773595,9.5773595 0 0 0 0.27672,2.284112 5.7337275,5.7337275 0 1 0 7.48324,7.104411 9.54918,9.54918 0 0 0 6.24944,-0.92705 3.0595964,3.0595964 0 1 0 4.01221,-4.0122 9.5055245,9.5055245 0 0 0 1.08903,-4.067341 l 0.01,3.83e-4 a 3.0592485,3.0592485 0 0 0 0,-6.118497 z"
             fill="#5d75f3"
             id="path1471"
             style="stroke-width:0.382406;fill:#4e80ee;fill-opacity:1" /><rect
             x="920.21838"
             y="67.153923"
             width="15.296242"
             height="2.2944362"
             fill="#e6e6e6"
             id="rect1473"
             style="stroke-width:0.382406" /><rect
             x="969.93115"
             y="68.30114"
             width="52.772034"
             height="52.772034"
             fill="#3f3d56"
             id="rect1475"
             style="stroke-width:0.382406" /><circle
             cx="1006.3362"
             cy="103.40601"
             r="0.68833089"
             fill="#5d75f3"
             id="circle1477"
             style="stroke-width:0.382406;fill:#4e80ee;fill-opacity:1" /><circle
             cx="1003.755"
             cy="100.99686"
             r="0.68833089"
             fill="#5d75f3"
             id="circle1479"
             style="stroke-width:0.382406;fill:#4e80ee;fill-opacity:1" /><path
             d="m 1003.4108,103.40601 a 1.3680538,1.3680538 0 0 0 -0.7172,0.20323 4.3235631,4.3235631 0 0 0 -0.6651,-0.78054 c 0,-0.0367 0.01,-0.0735 0.01,-0.11102 a 1.3756561,1.3756561 0 0 0 -2.33121,-0.99066 4.2170783,4.2170783 0 0 0 -1.11211,-0.01 c 2.5e-4,-0.0108 0.002,-0.0213 0.002,-0.0321 a 1.3766618,1.3766618 0 1 0 -2.28171,1.03561 4.3262629,4.3262629 0 0 0 -0.62371,0.6597 1.3765547,1.3765547 0 1 0 -0.88041,2.43467 l 0.004,-2.2e-4 c -0.002,0.0572 -0.004,0.11452 -0.004,0.1723 a 4.3099112,4.3099112 0 0 0 0.12453,1.02785 2.5801777,2.5801777 0 1 0 3.36746,3.19698 4.2971503,4.2971503 0 0 0 2.81226,-0.41717 1.3768186,1.3768186 0 1 0 1.8055,-1.80549 4.2775061,4.2775061 0 0 0 0.4901,-1.8303 v 2.2e-4 a 1.376665,1.376665 0 0 0 0,-2.75333 z"
             fill="#5d75f3"
             id="path1481"
             style="stroke-width:0.382406;fill:#4e80ee;fill-opacity:1" /><circle
             cx="1011.7365"
             cy="90.343674"
             r="0.68833089"
             fill="#5d75f3"
             id="circle1483"
             style="stroke-width:0.382406;fill:#4e80ee;fill-opacity:1" /><circle
             cx="1013.3557"
             cy="87.206017"
             r="0.68833089"
             fill="#5d75f3"
             id="circle1485"
             style="stroke-width:0.382406;fill:#4e80ee;fill-opacity:1" /><path
             d="m 1010.9435,87.527803 a 1.3680615,1.3680615 0 0 0 -0.39,-0.635272 4.3236358,4.3236358 0 0 0 0.571,-0.851741 c 0.036,-0.0071 0.072,-0.01453 0.1084,-0.0247 a 1.3756561,1.3756561 0 0 0 0.3216,-2.512431 4.2171242,4.2171242 0 0 0 -0.2921,-1.073104 c 0.01,-0.0027 0.021,-0.0042 0.031,-0.0072 a 1.3766618,1.3766618 0 1 0 -1.6154,-1.915556 4.3262744,4.3262744 0 0 0 -0.8041,-0.421515 1.3765585,1.3765585 0 1 0 -2.5821,-0.18747 v 0.0041 c -0.056,0.01335 -0.1114,0.02684 -0.167,0.04251 a 4.3097162,4.3097162 0 0 0 -0.9556,0.398467 2.5801777,2.5801777 0 1 0 -2.1645,4.108001 4.297135,4.297135 0 0 0 1.1639,2.59386 1.3768186,1.3768186 0 1 0 2.2273,1.248468 4.2774794,4.2774794 0 0 0 1.8946,-0.02444 v 0.0042 a 1.3766618,1.3766618 0 1 0 2.6502,-0.746354 z"
             fill="#5d75f3"
             id="path1487"
             style="stroke-width:0.382406;fill:#4e80ee;fill-opacity:1" /><circle
             cx="985.07642"
             cy="80.989937"
             r="0.68833089"
             fill="#5d75f3"
             id="circle1489"
             style="stroke-width:0.382406;fill:#4e80ee;fill-opacity:1" /><circle
             cx="981.55682"
             cy="81.271919"
             r="0.68833089"
             fill="#5d75f3"
             id="circle1491"
             style="stroke-width:0.382406;fill:#4e80ee;fill-opacity:1" /><path
             d="m 983.10402,83.15042 a 1.3680729,1.3680729 0 0 0 -0.33348,0.666698 4.3234828,4.3234828 0 0 0 -1.02485,-0.0351 c -0.0251,-0.02692 -0.0505,-0.05372 -0.0782,-0.07899 a 1.3756561,1.3756561 0 0 0 -2.30338,1.053689 4.2170286,4.2170286 0 0 0 -0.75698,0.814773 c -0.008,-0.0075 -0.0146,-0.01556 -0.0226,-0.02287 a 1.3766618,1.3766618 0 1 0 -0.77357,2.383334 4.32637,4.32637 0 0 0 0.0667,0.905403 1.3765547,1.3765547 0 1 0 1.20446,2.291729 l 0.003,-0.0034 c 0.0407,0.04026 0.0816,0.08043 0.12431,0.119391 a 4.30959,4.30959 0 0 0 0.84304,0.601039 2.5801777,2.5801777 0 1 0 4.63149,-0.331439 4.2971503,4.2971503 0 0 0 1.58801,-2.358176 1.3768186,1.3768186 0 1 0 -0.11608,-2.550713 4.2774602,4.2774602 0 0 0 -1.0213,-1.595964 l 0.003,-0.0031 a 1.3766618,1.3766618 0 1 0 -2.03339,-1.856371 z"
             fill="#5d75f3"
             id="path1493"
             style="stroke-width:0.382406;fill:#4e80ee;fill-opacity:1" /><rect
             x="987.52185"
             y="67.153923"
             width="15.296242"
             height="2.2944362"
             fill="#e6e6e6"
             id="rect1495"
             style="stroke-width:0.382406" /><rect
             y="273.13943"
             width="198.68161"
             height="0.85686487"
             fill="#3f3d56"
             id="rect1501"
             x="717.33032"
             style="stroke-width:0.382406" /></g></g></g><text
       xml:space="preserve"
       style="font-size:70.5556px;fill:#f37041;stroke-width:0.264583"
       x="110.1682"
       y="128.62704"
       id="text1249"><tspan
         sodipodi:role="line"
         id="tspan1247"
         style="font-size:70.5556px;stroke-width:0.264583"
         x="110.1682"
         y="128.62704" /></text></g></svg>
